<?xml version="1.0"?>
<!--Icons from directory ""-->
<svg xmlns="http://www.w3.org/2000/svg" width="140" height="349" viewBox="0 0 140 349"><svg xmlns:xlink="http://www.w3.org/1999/xlink" id="experience" xml:space="preserve" height="130" viewBox="0 0 140 130" width="140" version="1.1" y="0" x="0px" enable-background="new 0 0 140 130"><g fill="#8CC34B"><path d="m132.42 56.463c0 3.581-2.904 6.484-6.484 6.484 3.58 0 6.484 2.901 6.484 6.481 0-3.58 2.9-6.481 6.48-6.481-3.58 0-6.48-2.903-6.48-6.484z"/><path d="m41.374 69.506c0 2.23-1.81 4.039-4.04 4.039 2.23 0 4.04 1.809 4.04 4.039 0-2.23 1.806-4.039 4.037-4.039-2.231 0-4.037-1.808-4.037-4.039z"/><path d="m86.33 0c0 3.361-2.727 6.086-6.086 6.086 3.359 0 6.086 2.723 6.086 6.084 0-3.361 2.723-6.084 6.084-6.084-3.362 0-6.084-2.725-6.084-6.086z"/><path d="m48.881 107.53c0 2.387-1.935 4.32-4.32 4.32 2.386 0 4.32 1.934 4.32 4.322 0-2.389 1.934-4.322 4.32-4.322-2.387 0-4.32-1.93-4.32-4.32z"/></g><linearGradient id="experience-SVGID_1_" y2="68.519" gradientUnits="userSpaceOnUse" x2="14.115" y1="68.519" x1=".248">	<stop stop-color="#F79D2A" offset="0"/>	<stop stop-color="#FFCD2E" offset="1"/></linearGradient><path d="m7.183 61.585c0 3.83-3.106 6.935-6.935 6.935 3.828 0 6.935 3.104 6.935 6.934 0-3.83 3.104-6.934 6.933-6.934-3.83 0-6.933-3.105-6.933-6.935z" fill="url(#experience-SVGID_1_)"/><linearGradient id="experience-SVGID_2_" y2="78.005" gradientUnits="userSpaceOnUse" x2="103.65" y1="78.005" x1="94.738">	<stop stop-color="#F79D2A" offset="0"/>	<stop stop-color="#FFCD2E" offset="1"/></linearGradient><path d="m99.195 73.549c0 2.461-1.996 4.457-4.457 4.457 2.461 0 4.457 1.992 4.457 4.455 0-2.463 1.994-4.455 4.453-4.455-2.46 0-4.455-1.996-4.455-4.457z" fill="url(#experience-SVGID_2_)"/><linearGradient id="experience-SVGID_3_" y2="112" gradientUnits="userSpaceOnUse" x2="140" y1="112" x1="127.49">	<stop stop-color="#F79D2A" offset="0"/>	<stop stop-color="#FFCD2E" offset="1"/></linearGradient><path d="m133.75 105.74c0 3.455-2.803 6.256-6.258 6.256 3.455 0 6.258 2.801 6.258 6.256 0-3.455 2.799-6.256 6.254-6.256-3.46 0-6.25-2.8-6.25-6.26z" fill="url(#experience-SVGID_3_)"/><linearGradient id="experience-SVGID_4_" y2="19.317" gradientUnits="userSpaceOnUse" x2="112.24" y1="19.317" x1="104.48">	<stop stop-color="#F79D2A" offset="0"/>	<stop stop-color="#FFCD2E" offset="1"/></linearGradient><path d="m108.36 15.438c0 2.144-1.736 3.879-3.879 3.879 2.143 0 3.879 1.736 3.879 3.88 0-2.144 1.736-3.88 3.881-3.88-2.14-0.001-3.88-1.736-3.88-3.879z" fill="url(#experience-SVGID_4_)"/><linearGradient id="experience-SVGID_5_" y2="110.58" gradientUnits="userSpaceOnUse" x2="21.35" y1="110.58" x1="13.314">	<stop stop-color="#F79D2A" offset="0"/>	<stop stop-color="#FFCD2E" offset="1"/></linearGradient><path d="m17.332 106.56c0 2.219-1.8 4.018-4.018 4.018 2.218 0 4.018 1.797 4.018 4.018 0-2.221 1.798-4.018 4.018-4.018-2.22 0-4.018-1.8-4.018-4.02z" fill="url(#experience-SVGID_5_)"/><linearGradient id="experience-SVGID_6_" y2="125.68" gradientUnits="userSpaceOnUse" x2="73.287" y1="125.68" x1="64.644">	<stop stop-color="#F79D2A" offset="0"/>	<stop stop-color="#FFCD2E" offset="1"/></linearGradient><path d="m68.966 121.36c0 2.387-1.936 4.32-4.321 4.32 2.386 0 4.321 1.934 4.321 4.322 0-2.389 1.934-4.322 4.321-4.322-2.387 0-4.321-1.94-4.321-4.32z" fill="url(#experience-SVGID_6_)"/><linearGradient id="experience-SVGID_7_" y2="16.127" gradientUnits="userSpaceOnUse" x2="7.9824" y1="16.127">	<stop stop-color="#F79D2A" offset="0"/>	<stop stop-color="#FFCD2E" offset="1"/></linearGradient><path d="m3.992 12.136c0 2.205-1.788 3.991-3.992 3.991 2.204 0 3.992 1.787 3.992 3.991 0-2.204 1.785-3.991 3.99-3.991-2.205 0-3.99-1.786-3.99-3.991z" fill="url(#experience-SVGID_7_)"/>	<linearGradient id="experience-SVGID_8_" y2="89.1" gradientUnits="userSpaceOnUse" x2="77.087" y1="89.1" x1="60.302">		<stop stop-color="#76767D" offset="0"/>		<stop stop-color="#A4A8A8" offset="1"/>	</linearGradient>	<path stroke="#444" stroke-width="2" stroke-miterlimit="10" d="m75.628 85.178h-13.868c-0.806 0-1.458 1.482-1.458 2.289 0 0.805 0.652 2.287 1.458 2.287h4.647l-5.091 0.949c-0.764 0.248-1.185 0.719-0.938 1.484 0.2 0.617 0.772 0.834 1.39 0.834 0.147 0 0.299-0.113 0.449-0.158l13.862-4.541c0.682-0.221 1.102-1.057 0.99-1.766-0.114-0.706-0.724-1.378-1.441-1.378z" fill="url(#experience-SVGID_8_)"/>	<linearGradient id="experience-SVGID_9_" y2="95.53" gradientUnits="userSpaceOnUse" x2="77.07" y1="95.53" x1="60.301">		<stop stop-color="#76767D" offset="0"/>		<stop stop-color="#A4A8A8" offset="1"/>	</linearGradient>	<path stroke="#444" stroke-width="2" stroke-miterlimit="10" d="m75.611 95.477h-4.635l5.086-2.299c0.766-0.246 1.186-1.393 0.936-2.16-0.25-0.766-1.068-1.348-1.838-1.1l-13.851 4.414c-0.683 0.225-1.102 1.203-0.99 1.912 0.111 0.707 0.724 1.521 1.441 1.521h1.259l2.204 3.434h6.873l2.238-3.434h1.277c0.807 0 1.457-0.34 1.457-1.145 0-0.806-0.651-1.144-1.457-1.144z" fill="url(#experience-SVGID_9_)"/>	<linearGradient id="experience-SVGID_10_" y2="60.078" gradientUnits="userSpaceOnUse" x2="88.386" y1="60.078" x1="49.016">		<stop stop-color="#F79D2A" offset="0"/>		<stop stop-color="#FFCD2E" offset="1"/>	</linearGradient>	<path stroke="#515151" stroke-width="2" stroke-miterlimit="10" d="m68.696 36.465c-10.862 0.013-19.681 8.819-19.681 19.685 0 5.222 2.656 9.73 5.348 13.771 5.945 8.932 2.567 13.77 5.999 13.77h16.69c3.436 0 0.049-4.838 5.994-13.77 2.691-4.041 5.34-8.409 5.34-13.627 0.002-10.869-8.826-19.816-19.69-19.829z" fill="url(#experience-SVGID_10_)"/>	<path d="m77.695 62.196c-0.041 0.105-4.25 10.583-3.914 19.937 0.02 0.574-0.305 1.061-0.721 1.088-0.016 0.004-0.027 0.004-0.041 0.004-0.4 0-0.738-0.434-0.756-0.99-0.281-7.852 2.324-16.135 3.523-19.506h-2.754c-0.361 0-0.67-0.352-0.74-0.826l-1.053 3.182c-0.146 0.435-0.492 0.682-0.831 0.593-0.342-0.084-0.598-0.477-0.619-0.956l-0.086-1.834-0.739 2.561c-0.136 0.463-0.487 0.739-0.851 0.637-0.356-0.094-0.614-0.522-0.614-1.022v-1.937l-0.686 2.129c-0.145 0.443-0.497 0.699-0.84 0.601-0.346-0.09-0.601-0.501-0.612-0.984l-0.081-3.23-0.314 0.633c-0.142 0.283-0.378 0.458-0.63 0.458h-2.646c2.894 7.278 3.35 18.875 3.368 19.401 0.021 0.576-0.303 1.063-0.72 1.092-0.415 0.063-0.776-0.41-0.796-0.986-0.006-0.131-0.528-13.426-3.829-19.951-0.163-0.321-0.182-0.734-0.049-1.077 0.132-0.343 0.388-0.556 0.672-0.556h3.598l1.392-2.822c0.184-0.372 0.522-0.54 0.838-0.416 0.316 0.125 0.536 0.512 0.549 0.962l0.049 1.886 0.804-2.494c0.145-0.447 0.498-0.695 0.851-0.602 0.353 0.104 0.602 0.529 0.602 1.021v1.435l0.526-1.815c0.133-0.451 0.479-0.718 0.825-0.645 0.35 0.078 0.619 0.476 0.638 0.964l0.105 2.304 0.883-2.67c0.141-0.422 0.471-0.66 0.805-0.598 0.334 0.068 0.596 0.431 0.639 0.891l0.262 2.603h3.338c0.268 0 0.516 0.197 0.652 0.515 0.134 0.305 0.136 0.696 0.003 1.02z" fill="#fff"/>	<path opacity=".3" d="m71.291 41.375c-9.589 0-17.365 7.848-17.365 17.528" stroke="#fff" stroke-linecap="round" stroke-miterlimit="10" stroke-width="3" fill="none"/><g opacity=".7">		<linearGradient id="experience-SVGID_11_" y2="152.04" gradientUnits="userSpaceOnUse" x2="71.409" gradientTransform="matrix(.8645 .5026 -.5026 .8645 127.44 -107.88)" y1="152.04" x1="62.648">		<stop stop-color="#76767D" offset="0"/>		<stop stop-color="#A4A8A8" offset="1"/>	</linearGradient>	<path stroke="#444" stroke-miterlimit="10" d="m113.13 57.296l-6.256-3.638c-0.365-0.213-1.049 0.286-1.26 0.649-0.211 0.364-0.307 1.203 0.059 1.415l2.096 1.22-2.547-0.908c-0.408-0.088-0.723 0.014-0.811 0.425-0.072 0.33 0.129 0.578 0.406 0.74 0.068 0.039 0.166 0.027 0.244 0.046l7.447 1.588c0.367 0.079 0.773-0.188 0.91-0.536 0.13-0.35 0.04-0.814-0.29-1.001z" fill="url(#experience-SVGID_11_)"/>		<linearGradient id="experience-SVGID_12_" y2="155.4" gradientUnits="userSpaceOnUse" x2="71.4" gradientTransform="matrix(.8645 .5026 -.5026 .8645 127.44 -107.88)" y1="155.4" x1="62.646">		<stop stop-color="#76767D" offset="0"/>		<stop stop-color="#A4A8A8" offset="1"/>	</linearGradient>	<path stroke="#444" stroke-miterlimit="10" d="m110.42 61.938l-2.09-1.215 2.896 0.297c0.41 0.089 0.9-0.317 0.99-0.729 0.086-0.411-0.131-0.89-0.541-0.979l-7.41-1.642c-0.365-0.078-0.813 0.253-0.947 0.602s-0.072 0.878 0.252 1.065l0.566 0.33 0.094 2.127 3.102 1.804 1.91-0.962 0.576 0.334c0.365 0.212 0.748 0.229 0.959-0.135 0.21-0.361 0-0.686-0.36-0.897z" fill="url(#experience-SVGID_12_)"/>		<linearGradient id="experience-SVGID_13_" y2="136.89" gradientUnits="userSpaceOnUse" x2="77.306" gradientTransform="matrix(.8645 .5026 -.5026 .8645 127.44 -107.88)" y1="136.89" x1="56.755">		<stop stop-color="#F79D2A" offset="0"/>		<stop stop-color="#FFCD2E" offset="1"/>	</linearGradient>	<path stroke="#515151" stroke-width="2" stroke-miterlimit="10" d="m122.78 33.496c-4.904-2.844-11.193-1.183-14.043 3.719-1.369 2.356-1.354 5.089-1.199 7.618 0.34 5.589-2.455 6.886-0.904 7.787l3.756 2.184 3.773 2.193c1.551 0.901 1.291-2.171 6.316-4.64 2.275-1.117 4.617-2.393 5.986-4.749 2.84-4.903 1.2-11.256-3.7-14.112z" fill="url(#experience-SVGID_13_)"/>	<path d="m120.09 47.468c-0.047 0.036-4.693 3.661-6.998 7.97-0.141 0.265-0.416 0.397-0.611 0.302-0.008-0.002-0.012-0.005-0.018-0.009-0.182-0.105-0.219-0.391-0.082-0.646 1.934-3.616 5.281-6.671 6.707-7.877l-1.242-0.723c-0.162-0.095-0.211-0.335-0.117-0.566l-1.311 1.158c-0.18 0.158-0.4 0.179-0.529 0.051-0.133-0.129-0.145-0.373-0.029-0.596l0.443-0.849-1.006 0.962c-0.184 0.174-0.414 0.205-0.551 0.063-0.137-0.136-0.141-0.396-0.01-0.621l0.508-0.874-0.867 0.781c-0.182 0.161-0.408 0.184-0.535 0.051-0.133-0.132-0.141-0.384-0.02-0.604l0.813-1.479-0.311 0.203c-0.137 0.091-0.291 0.108-0.404 0.042l-1.193-0.694c-0.604 4.043-3.439 9.396-3.57 9.638-0.143 0.266-0.414 0.399-0.611 0.304-0.203-0.081-0.242-0.39-0.1-0.653 0.031-0.061 3.283-6.197 3.506-10.008 0.012-0.188 0.111-0.378 0.26-0.498 0.15-0.12 0.322-0.149 0.449-0.075l1.623 0.944 1.369-0.909c0.18-0.119 0.377-0.107 0.486 0.032s0.109 0.372-0.004 0.578l-0.473 0.864 1.018-0.915c0.182-0.164 0.408-0.184 0.543-0.049 0.131 0.14 0.131 0.397 0.002 0.618l-0.377 0.647 0.713-0.682c0.18-0.168 0.406-0.197 0.543-0.073 0.137 0.127 0.154 0.376 0.035 0.602l-0.557 1.066 1.098-0.973c0.176-0.152 0.387-0.174 0.521-0.058 0.133 0.118 0.156 0.352 0.053 0.569l-0.564 1.243 1.508 0.875c0.119 0.07 0.18 0.225 0.158 0.404-0.02 0.175-0.12 0.351-0.27 0.464z" fill="#fff"/>	<path opacity=".3" d="m122.67 36.393c-4.328-2.516-9.895-1.015-12.436 3.354" stroke="#fff" stroke-linecap="round" stroke-miterlimit="10" stroke-width="3" fill="none"/></g><g opacity=".7">		<linearGradient id="experience-SVGID_14_" y2="64.735" gradientUnits="userSpaceOnUse" x2="305.46" gradientTransform="matrix(.2805 -.9598 .9598 .2805 -112.41 367.47)" y1="64.735" x1="299.25">		<stop stop-color="#76767D" offset="0"/>		<stop stop-color="#A4A8A8" offset="1"/>	</linearGradient>	<path stroke="#444" stroke-miterlimit="10" d="m33.862 92.555l-1.439 4.924c-0.084 0.287 0.376 0.672 0.661 0.754 0.287 0.086 0.88 0.008 0.964-0.279l0.483-1.65-0.192 1.908c0.009 0.297 0.132 0.494 0.43 0.484 0.24-0.006 0.376-0.188 0.441-0.404 0.015-0.055-0.011-0.119-0.011-0.176l-0.174-5.395c-0.007-0.266-0.26-0.502-0.524-0.535-0.263-0.033-0.564 0.115-0.639 0.369z" fill="url(#experience-SVGID_14_)"/>		<linearGradient id="experience-SVGID_15_" y2="67.114" gradientUnits="userSpaceOnUse" x2="305.45" gradientTransform="matrix(.2805 -.9598 .9598 .2805 -112.41 367.47)" y1="67.114" x1="299.25">		<stop stop-color="#76767D" offset="0"/>		<stop stop-color="#A4A8A8" offset="1"/>	</linearGradient>	<path stroke="#444" stroke-miterlimit="10" d="m37.516 93.629l-0.479 1.646-0.289-2.043c-0.008-0.299-0.372-0.566-0.668-0.559-0.3 0.01-0.591 0.24-0.581 0.539l0.13 5.377c0.007 0.264 0.312 0.516 0.574 0.549 0.264 0.033 0.615-0.1 0.69-0.354l0.131-0.447 1.447-0.426 0.715-2.441-0.988-1.15 0.132-0.453c0.084-0.285 0.031-0.553-0.254-0.637-0.288-0.083-0.475 0.114-0.56 0.399z" fill="url(#experience-SVGID_15_)"/>		<linearGradient id="experience-SVGID_16_" y2="53.998" gradientUnits="userSpaceOnUse" x2="309.64" gradientTransform="matrix(.2805 -.9598 .9598 .2805 -112.41 367.47)" y1="53.998" x1="295.08">		<stop stop-color="#F79D2A" offset="0"/>		<stop stop-color="#FFCD2E" offset="1"/>	</linearGradient>	<path stroke="#515151" stroke-width="2" stroke-miterlimit="10" d="m15.847 89.963c-1.122 3.857 1.09 7.902 4.947 9.027 1.854 0.543 3.73 0.066 5.444-0.469 3.787-1.184 5.155 0.52 5.511-0.701l0.864-2.955 0.868-2.969c0.357-1.221-1.714-0.521-4.266-3.559-1.156-1.375-2.433-2.77-4.285-3.311-3.858-1.127-7.951 1.08-9.083 4.937z" fill="url(#experience-SVGID_16_)"/>	<path d="m25.917 89.438c0.032 0.025 3.317 2.605 6.673 3.459 0.206 0.051 0.345 0.217 0.313 0.367-0.001 0.008-0.002 0.012-0.004 0.016-0.042 0.143-0.23 0.215-0.431 0.164-2.815-0.715-5.487-2.5-6.56-3.273l-0.285 0.977c-0.038 0.129-0.195 0.203-0.37 0.178l1.02 0.703c0.14 0.098 0.191 0.246 0.125 0.357-0.067 0.113-0.232 0.164-0.404 0.119l-0.659-0.158 0.833 0.527c0.149 0.096 0.211 0.25 0.137 0.369-0.071 0.117-0.25 0.164-0.426 0.111l-0.688-0.201 0.686 0.467c0.142 0.094 0.194 0.246 0.126 0.357-0.068 0.113-0.24 0.162-0.413 0.115l-1.156-0.305 0.193 0.178c0.086 0.078 0.124 0.182 0.097 0.27l-0.274 0.939c2.884-0.271 7.049 0.77 7.237 0.818 0.206 0.053 0.347 0.217 0.313 0.369-0.022 0.152-0.228 0.232-0.434 0.178-0.046-0.01-4.821-1.203-7.481-0.709-0.129 0.023-0.278-0.012-0.387-0.094-0.107-0.082-0.156-0.197-0.127-0.297l0.372-1.277-0.856-0.787c-0.113-0.104-0.139-0.24-0.062-0.34 0.077-0.098 0.238-0.137 0.398-0.096l0.676 0.178-0.803-0.545c-0.145-0.096-0.195-0.248-0.125-0.363 0.073-0.113 0.249-0.16 0.423-0.107l0.511 0.148-0.59-0.373c-0.146-0.096-0.205-0.246-0.143-0.361 0.063-0.117 0.231-0.17 0.408-0.127l0.828 0.201-0.857-0.59c-0.134-0.094-0.186-0.234-0.127-0.348 0.058-0.111 0.214-0.168 0.382-0.133l0.95 0.176 0.347-1.186c0.026-0.094 0.123-0.164 0.251-0.178 0.123-0.014 0.262 0.025 0.363 0.107z" fill="#fff"/>	<path opacity=".3" d="m17.86 89.549c-0.996 3.404 0.984 6.98 4.421 7.986" stroke="#fff" stroke-linecap="round" stroke-miterlimit="10" stroke-width="3" fill="none"/></g><linearGradient id="experience-SVGID_17_" y2="291.73" gradientUnits="userSpaceOnUse" x2="53.11" gradientTransform="matrix(0 1 -1 0 360.43 -23.375)" y1="291.73" x1="41.44">	<stop stop-color="#F79D2A" offset="0"/>	<stop stop-color="#FFCD2E" offset="1"/></linearGradient><path opacity=".5" d="m68.701 29.735c-0.706 0-1.279-0.573-1.279-1.28v-9.109c0-0.708 0.573-1.28 1.279-1.28 0.708 0 1.28 0.572 1.28 1.28v9.109c0 0.707-0.572 1.28-1.28 1.28z" fill="url(#experience-SVGID_17_)"/><linearGradient id="experience-SVGID_18_" y2="258.45" gradientUnits="userSpaceOnUse" x2="49.37" gradientTransform="matrix(-.5721 .8202 -.8202 -.5721 321.59 142.53)" y1="258.45" x1="37.701">	<stop stop-color="#F79D2A" offset="0"/>	<stop stop-color="#FFCD2E" offset="1"/></linearGradient><path opacity=".5" d="m81.361 35.16c-0.58-0.404-0.721-1.203-0.316-1.782l5.211-7.472c0.404-0.58 1.203-0.723 1.781-0.317 0.58 0.404 0.723 1.202 0.316 1.781l-5.209 7.473c-0.406 0.578-1.203 0.721-1.783 0.317z" fill="url(#experience-SVGID_18_)"/><linearGradient id="experience-SVGID_19_" y2="237.53" gradientUnits="userSpaceOnUse" x2="34.422" gradientTransform="matrix(-.8856 .4645 -.4645 -.8856 230.36 237.63)" y1="237.53" x1="22.754">	<stop stop-color="#F79D2A" offset="0"/>	<stop stop-color="#FFCD2E" offset="1"/></linearGradient><path opacity=".5" d="m89.539 43.259c-0.33-0.626-0.088-1.399 0.537-1.729l8.068-4.23c0.627-0.329 1.402-0.087 1.729 0.539 0.328 0.625 0.088 1.399-0.541 1.727l-8.064 4.233c-0.628 0.327-1.401 0.086-1.729-0.54z" fill="url(#experience-SVGID_19_)"/><linearGradient id="experience-SVGID_20_" y2="273.5" gradientUnits="userSpaceOnUse" x2="59.871" gradientTransform="matrix(.5721 .8202 .8202 -.5721 -202.83 142.53)" y1="273.5" x1="48.201">	<stop stop-color="#F79D2A" offset="0"/>	<stop stop-color="#FFCD2E" offset="1"/></linearGradient><path opacity=".5" d="m55.755 35.16c0.58-0.404 0.722-1.203 0.318-1.782l-5.212-7.472c-0.404-0.58-1.203-0.723-1.783-0.317-0.579 0.404-0.722 1.202-0.316 1.781l5.211 7.473c0.405 0.578 1.203 0.721 1.782 0.317z" fill="url(#experience-SVGID_20_)"/><linearGradient id="experience-SVGID_21_" y2="246.03" gradientUnits="userSpaceOnUse" x2="50.631" gradientTransform="matrix(.8856 .4645 .4645 -.8856 -111.6 237.63)" y1="246.03" x1="38.963">	<stop stop-color="#F79D2A" offset="0"/>	<stop stop-color="#FFCD2E" offset="1"/></linearGradient><path opacity=".5" d="m47.525 43.259c0.329-0.626 0.087-1.399-0.538-1.729l-8.067-4.23c-0.627-0.329-1.402-0.087-1.729 0.539-0.329 0.625-0.088 1.399 0.539 1.727l8.066 4.233c0.628 0.327 1.401 0.086 1.729-0.54z" fill="url(#experience-SVGID_21_)"/><path stroke="#444" stroke-miterlimit="10" d="m117.43 115.15" fill="#E8E8E8"/>	<path stroke="#444" stroke-width="2" stroke-miterlimit="10" d="m84.835 118.93l11.346-26.977s20.242 5.607 28.803-5.539c0.432-0.561-0.586 3.34-0.586 3.34l-9.191 24.885s-3.582 13.047-30.221 3.936" fill="#E8E8E8"/>		<linearGradient id="experience-SVGID_22_" y2="209.66" gradientUnits="userSpaceOnUse" x2="84.234" gradientTransform="matrix(.9364 .351 -.351 .9364 110.76 -119.61)" y1="209.66" x1="63.123">		<stop stop-color="#F79D2A" offset="0"/>		<stop stop-color="#FFCD2E" offset="1"/>	</linearGradient>	<path d="m115.81 102.64s-6.506 3.209-19.295-0.125" stroke="url(#experience-SVGID_22_)" stroke-linecap="round" stroke-miterlimit="10" stroke-width="3" fill="none"/>		<linearGradient id="experience-SVGID_23_" y2="201.1" gradientUnits="userSpaceOnUse" x2="90.728" gradientTransform="matrix(.9574 .2888 -.2888 .9574 87.503 -109.41)" y1="201.1" x1="70.832">		<stop stop-color="#56AF5E" offset="0"/>		<stop stop-color="#C1D24D" offset="1"/>	</linearGradient>	<path d="m115.78 105.81s-5.055 3.775-18.037 1.289" stroke="url(#experience-SVGID_23_)" stroke-linecap="round" stroke-miterlimit="10" stroke-width="3" fill="none"/>		<linearGradient id="experience-SVGID_24_" y2="205.37" gradientUnits="userSpaceOnUse" x2="90.528" gradientTransform="matrix(.9574 .2888 -.2888 .9574 87.503 -109.41)" y1="205.37" x1="70.866">		<stop stop-color="#56AF5E" offset="0"/>		<stop stop-color="#C1D24D" offset="1"/>	</linearGradient>	<path d="m114.32 109.97s-3.816 3.674-17.736 1.104" stroke="url(#experience-SVGID_24_)" stroke-linecap="round" stroke-miterlimit="10" stroke-width="3" fill="none"/>		<linearGradient id="experience-SVGID_25_" y2="229.61" gradientUnits="userSpaceOnUse" x2="84.023" gradientTransform="matrix(.9223 .3864 -.3864 .9223 124.58 -125.66)" y1="229.61" x1="60.787">		<stop stop-color="#F79D2A" offset="0"/>		<stop stop-color="#FFCD2E" offset="1"/>	</linearGradient>	<path d="m113.48 114.38s-6.711 3.512-21.695-0.582" stroke="url(#experience-SVGID_25_)" stroke-linecap="round" stroke-miterlimit="10" stroke-width="3" fill="none"/>	<path stroke="#444" stroke-miterlimit="10" d="m91.687 102.58" fill="#E8E8E8"/>	<path d="m94.13 96.182l2.051-4.23s20.242 5.607 28.803-5.539c0.432-0.561-0.586 3.34-0.586 3.34s-1.352 14.199-29.938 6.764" fill="#434347"/>		<linearGradient id="experience-SVGID_26_" y2="64.399" gradientUnits="userSpaceOnUse" x2="261.68" gradientTransform="matrix(.7073 -.707 .707 .7073 -98.334 222.8)" y1="64.399" x1="223.88">		<stop stop-color="#9CA5AA" offset=".1237"/>		<stop stop-color="#CFD7DB" offset="1"/>	</linearGradient>	<path stroke="#565656" stroke-width="2" stroke-miterlimit="10" d="m127.49 83.116c-0.082-5.096-2.975-7.527-2.975-7.527s-13.365 31.719-13.26 31.832c4.549 5.063 2.053 10.41 2.053 10.41l14.18-34.714z" fill="url(#experience-SVGID_26_)"/>		<ellipse rx=".95" ry="1.038" transform="matrix(.9054 .4245 -.4245 .9054 49.334 -32.512)" cy="94.476" cx="97.641" fill="#EC4643"/>	<path d="m101.05 95.288c-0.201 0.535-0.762 0.818-1.252 0.635-0.494-0.182-0.729-0.766-0.529-1.301 0.201-0.537 0.764-0.824 1.254-0.637 0.49 0.182 0.73 0.767 0.53 1.303z" fill="#FFCD2E"/>		<ellipse rx=".951" ry="1.037" transform="matrix(.9459 .3245 -.3245 .9459 36.528 -28.143)" cy="95.436" cx="102.64" fill="#C2E046"/>	<path stroke="#444" stroke-width="2" stroke-miterlimit="10" d="m42.474 1.138l-0.858 29.055s-20.762 2.049-24.704 15.439c-0.201 0.676-0.653-3.301-0.653-3.301l-0.391-26.349s-1.349-13.368 26.594-14.461" fill="#E8E8E8"/>		<linearGradient id="experience-SVGID_27_" y2="372.32" gradientUnits="userSpaceOnUse" x2="258.44" gradientTransform="matrix(-.9882 .1531 -.1531 -.9882 332.39 359.21)" y1="372.32" x1="239.21">		<stop stop-color="#F79D2A" offset="0"/>		<stop stop-color="#FFCD2E" offset="1"/>	</linearGradient>	<path d="m21.866 33.104s2.572-4.111 15.268-7.45" stroke="url(#experience-SVGID_27_)" stroke-linecap="round" stroke-miterlimit="10" stroke-width="3" fill="none"/>	<linearGradient id="experience-SVGID_28_" y2="24.997" gradientUnits="userSpaceOnUse" x2="36.221" y1="24.997" x1="19.602">		<stop stop-color="#56AF5E" offset="0"/>		<stop stop-color="#C1D24D" offset="1"/>	</linearGradient>	<path d="m21.103 28.996s1.17-3.828 13.618-7.998" stroke="url(#experience-SVGID_28_)" stroke-linecap="round" stroke-miterlimit="10" stroke-width="3" fill="none"/>	<linearGradient id="experience-SVGID_29_" y2="20.59" gradientUnits="userSpaceOnUse" x2="36.476" y1="20.59" x1="18.845">		<stop stop-color="#56AF5E" offset="0"/>		<stop stop-color="#C1D24D" offset="1"/>	</linearGradient>	<path d="m20.345 24.54s6.055-6.603 14.631-7.9" stroke="url(#experience-SVGID_29_)" stroke-linecap="round" stroke-miterlimit="10" stroke-width="3" fill="none"/>		<linearGradient id="experience-SVGID_30_" y2="386.33" gradientUnits="userSpaceOnUse" x2="263.43" gradientTransform="matrix(-.9933 .1153 -.1153 -.9933 323.28 370.68)" y1="386.33" x1="241.1">		<stop stop-color="#F79D2A" offset="0"/>		<stop stop-color="#FFCD2E" offset="1"/>	</linearGradient>	<path d="m18.925 20.316s8.095-7.738 18.463-8.587" stroke="url(#experience-SVGID_30_)" stroke-linecap="round" stroke-miterlimit="10" stroke-width="3" fill="none"/>	<path stroke="#444" stroke-miterlimit="10" d="m41.976 18.741" fill="#E8E8E8"/>	<path d="m42.001 1.326l-0.34 6.468s-20.808 0.234-24.75 13.626c-0.201 0.675-0.653-3.303-0.653-3.303s-3.83-13.64 25.318-16.979" fill="#434347"/>		<linearGradient id="experience-SVGID_31_" y2="304.11" gradientUnits="userSpaceOnUse" x2="207.55" gradientTransform="matrix(-.405 .9143 -.9143 -.405 373.62 -15.391)" y1="304.11" x1="172.55">		<stop stop-color="#9CA5AA" offset=".1237"/>		<stop stop-color="#CFD7DB" offset="1"/>	</linearGradient>	<path stroke="#565656" stroke-width="2" stroke-miterlimit="10" d="m15.771 49.586c1.898 4.69 5.447 5.908 5.447 5.908s1.033-34.173 0.896-34.241c-6.026-3.061-6.122-6.339-6.122-6.339l-0.221 34.672z" fill="url(#experience-SVGID_31_)"/></svg><svg xmlns:xlink="http://www.w3.org/1999/xlink" id="git" xml:space="preserve" height="29" viewBox="0 0 30 29.263" width="30" version="1.1" y="130" x="0px" enable-background="new 0 0 30 29.263">	<style type="text/css">		#git-git .git-icon {			fill: #fff;		}		#git:hover .git-icon {			opacity: 0.7;		}	</style>	<path class="git-icon" fill="#fff" d="m19.746 29.238c-0.762 0.137-1.016-0.332-1.016-0.723v-4.121c0-1.406-0.469-2.305-1.016-2.773 3.34-0.371 6.855-1.641 6.855-7.402 0-1.641-0.586-2.988-1.543-4.023 0.156-0.391 0.664-1.914-0.156-3.984-1.25-0.391-4.121 1.543-4.121 1.543-1.19-0.333-2.479-0.509-3.749-0.509s-2.559 0.176-3.75 0.508-2.871-1.934-4.141-1.543c-0.801 2.07-0.293 3.594-0.137 3.984-0.956 1.035-1.542 2.383-1.542 4.024 0 5.742 3.496 7.031 6.836 7.402-0.43 0.391-0.82 1.035-0.957 2.012-0.859 0.391-3.047 1.055-4.355-1.25-0.82-1.426-2.305-1.543-2.305-1.543-1.465-0.02-0.098 0.918-0.098 0.918 0.977 0.449 1.66 2.188 1.66 2.188 0.879 2.676 5.059 1.777 5.059 1.777 0 1.25 0.02 2.441 0.02 2.793 0 0.391-0.273 0.859-1.035 0.723-5.958-1.993-10.255-7.618-10.255-14.239 0-8.281 6.719-15 15-15s15 6.719 15 15c0 6.621-4.297 12.246-10.254 14.238z"/></svg><svg xmlns:xlink="http://www.w3.org/1999/xlink" id="hello" xml:space="preserve" height="139" viewBox="0 0 140 138.526" width="140" version="1.1" y="159" x="0px" enable-background="new 0 0 140 138.526"><g fill="#8CC34B"><path d="m83.081 0c0 3.513-2.85 6.36-6.361 6.36 3.512 0 6.361 2.846 6.361 6.358 0-3.513 2.846-6.358 6.357-6.358-3.512 0-6.357-2.847-6.357-6.36z"/><path d="m9.117 95.573c0 3.514-2.849 6.359-6.36 6.359 3.512 0 6.36 2.846 6.36 6.359 0-3.514 2.846-6.359 6.357-6.359-3.511 0-6.357-2.844-6.357-6.357z"/><path d="m31.432 33.578c0 2.494-2.021 4.515-4.515 4.515 2.493 0 4.515 2.021 4.515 4.517 0-2.495 2.021-4.517 4.515-4.517-2.494 0-4.515-2.021-4.515-4.515z"/><path d="m66.806 116.89c0 2.494-2.021 4.514-4.515 4.514 2.493 0 4.515 2.021 4.515 4.518 0-2.496 2.021-4.518 4.515-4.518-2.494 0.01-4.515-2.01-4.515-4.51z"/><path d="m135.48 104.26c0 2.494-2.021 4.514-4.514 4.514 2.492 0 4.514 2.021 4.514 4.518 0-2.496 2.021-4.518 4.516-4.518-2.49 0-4.52-2.02-4.52-4.51z"/></g><linearGradient id="hello-SVGID_1_" y2="66.724" gradientUnits="userSpaceOnUse" x2="135.48" y1="66.724" x1="120.99">	<stop stop-color="#F79D2A" offset="0"/>	<stop stop-color="#FFCD2E" offset="1"/></linearGradient><path d="m128.24 59.478c0 4.002-3.248 7.248-7.248 7.248 4 0 7.248 3.244 7.248 7.246 0-4.002 3.242-7.246 7.244-7.246-4 0-7.24-3.247-7.24-7.248z" fill="url(#hello-SVGID_1_)"/><linearGradient id="hello-SVGID_2_" y2="6.3594" gradientUnits="userSpaceOnUse" x2="44.056" y1="6.3594" x1="35.946">	<stop stop-color="#F79D2A" offset="0"/>	<stop stop-color="#FFCD2E" offset="1"/></linearGradient><path d="m40 2.305c0 2.24-1.815 4.054-4.054 4.054 2.238 0 4.054 1.814 4.054 4.056 0-2.241 1.815-4.056 4.056-4.056-2.241-0.001-4.056-1.814-4.056-4.054z" fill="url(#hello-SVGID_2_)"/><linearGradient id="hello-SVGID_3_" y2="31.374" gradientUnits="userSpaceOnUse" x2="14.363" y1="31.374">	<stop stop-color="#F79D2A" offset="0"/>	<stop stop-color="#FFCD2E" offset="1"/></linearGradient><path d="m7.181 24.192c0 3.968-3.217 7.181-7.181 7.181 3.964 0 7.181 3.215 7.181 7.184 0-3.969 3.215-7.184 7.183-7.184-3.968 0-7.183-3.213-7.183-7.181z" fill="url(#hello-SVGID_3_)"/><linearGradient id="hello-SVGID_4_" y2="131.34" gradientUnits="userSpaceOnUse" x2="108.3" y1="131.34" x1="93.932">	<stop stop-color="#F79D2A" offset="0"/>	<stop stop-color="#FFCD2E" offset="1"/></linearGradient><path d="m101.11 124.16c0 3.969-3.219 7.182-7.182 7.182 3.963 0 7.182 3.215 7.182 7.182 0-3.967 3.215-7.182 7.182-7.182-3.96 0-7.18-3.21-7.18-7.18z" fill="url(#hello-SVGID_4_)"/>	<linearGradient id="hello-SVGID_5_" y2="58.098" gradientUnits="userSpaceOnUse" x2="92.648" y1="58.098" x1="47.881">		<stop stop-color="#F79D2A" offset="0"/>		<stop stop-color="#FFCD2E" offset="1"/>	</linearGradient>	<path stroke="#515151" stroke-width="2" stroke-miterlimit="10" d="m92.45 82.727c0.445-3.342 0-5.535 0-5.535v-28.31c-0.676-0.204-1.375-0.345-2.115-0.345-2.154 0-4.076 0.935-5.426 2.405v-18.033c0-2.779-2.252-5.03-5.029-5.03-1.512 0-2.852 0.681-3.773 1.735v-2.74c0-2.778-2.252-5.03-5.029-5.03s-5.028 2.252-5.028 5.03v3.196c-0.906-1.323-2.424-2.191-4.147-2.191-2.779 0-5.03 2.251-5.03 5.03v6.663c-0.922-1.142-2.315-1.888-3.896-1.888-2.779 0-5.029 2.252-5.029 5.03v34.477c-0.755 15.652 5.374 17.16 5.374 17.16h34.375c2.936-4.068 4.178-7.971 4.666-11.029h0.09v-0.595z" fill="url(#hello-SVGID_5_)"/><g stroke="#515151" stroke-linecap="round" stroke-miterlimit="10" fill="none">	<path d="m92.588 83.323v-34.441c-0.674-0.204-1.375-0.345-2.113-0.345-4.088 0-7.396 3.312-7.396 7.396v12.994" stroke-width="2"/>	<path d="m67.488 94.352c-0.063-0.76-0.099-1.533-0.099-2.313 0-12.279 8.253-22.234 18.433-22.234"/><g stroke-width="2">		<line y2="60.13" x1="56.887" x2="56.887" y1="38.094"/>		<line y2="60.13" x1="66.145" x2="66.145" y1="29.969"/>		<line y2="60.13" x1="76.168" x2="76.168" y1="29.073"/>		</g><line y2="35.799" x2="76.168" y1="35.799" x1="80.083"/>		<line y2="47.869" x2="76.168" y1="47.869" x1="80.083"/>		<line y2="32.532" x2="66.145" y1="32.532" x1="70.057"/>		<line y2="37.685" x2="56.887" y1="37.685" x1="60.801"/>		<line y2="50.383" x2="56.887" y1="50.383" x1="60.801"/>		<line y2="47.869" x2="47.88" y1="47.869" x1="51.793"/>		<line y2="55.663" x2="47.88" y1="55.663" x1="51.793"/>		<line y2="46.329" x2="66.145" y1="46.329" x1="70.057"/>	</g>			<path d="m81.204 59.16c-0.629 0.082-4.074 0.439-8.967 1.891-2.45 0.718-5.284 1.77-8.242 3.195-2.921 1.499-6.025 3.332-8.627 5.704-2.697 2.279-4.768 4.994-6.267 7.561-1.393 2.57-2.301 5.029-2.662 7.021-0.562 2.07-0.505 3.609-0.593 4.74-0.047 1.121-0.071 1.76-0.071 1.76l25.481-1.984s0.023-0.291 0.064-0.797c0.057-0.492-0.031-1.281 0.236-1.986 0.291-1.586 1.063-3.053 2.422-4.211 0.611-0.629 1.596-1.158 2.561-1.689 1.045-0.488 2.16-0.932 3.211-1.234 2.094-0.629 3.578-0.752 2.934-0.688l-1.48-19.283z" fill="none"/>			<path d="m72.793 70.151s-0.313 0.119-0.865 0.328c-0.551 0.217-1.301 0.582-2.216 0.994-1.769 0.904-4.111 2.213-5.957 3.92-1.965 1.631-3.321 3.594-4.203 5.076-0.466 0.736-0.642 1.396-0.86 1.84-0.19 0.447-0.299 0.703-0.299 0.703l2.452 0.385s0.097-0.229 0.268-0.633c0.199-0.395 0.348-1 0.771-1.65 0.79-1.32 1.984-3.064 3.732-4.508 1.632-1.52 3.744-2.697 5.344-3.518 0.838-0.371 1.52-0.707 2.02-0.906 0.504-0.189 0.797-0.299 0.797-0.299l-0.984-1.732z" fill="#fff"/>		<path d="m80.149 68.092l0.387 1.897s-0.246 0.043-0.617 0.113c-0.371 0.078-0.861 0.188-1.357 0.293-0.971 0.254-1.943 0.514-1.943 0.514l-0.73-1.816s1.055-0.283 2.111-0.555c0.533-0.115 1.068-0.232 1.471-0.319 0.406-0.075 0.678-0.127 0.678-0.127z" fill="#fff"/>		<path d="m57.688 85.491l2.517 0.158s-0.045 0.189-0.111 0.475-0.175 0.666-0.167 1.053c-0.04 0.77-0.082 1.539-0.082 1.539l-2.548 0.104s0.047-0.83 0.092-1.662c-0.006-0.416 0.109-0.832 0.181-1.145 0.074-0.315 0.118-0.522 0.118-0.522z" fill="#fff"/>			<path d="m46.394 72.272c0.353 0.23 2.22 1.561 5.403 2.766 1.593 0.611 3.557 1.16 5.796 1.49 2.261 0.268 4.798 0.373 7.399-0.141 2.594-0.4 5.133-1.408 7.311-2.57 2.129-1.213 3.959-2.568 5.262-3.84 1.445-1.237 2.289-2.372 2.975-3.149 0.652-0.788 1.027-1.236 1.027-1.236l-13.442-10.31s-0.174 0.2-0.482 0.545c-0.305 0.332-0.709 0.94-1.237 1.324-1.038 1.013-2.245 1.717-3.558 1.925-0.65 0.171-1.426 0.1-2.192 0.042-0.782-0.133-1.572-0.325-2.251-0.591-1.372-0.51-2.158-1.106-1.809-0.855l-10.202 14.6z" fill="none"/>			<path d="m56.684 68.212s0.221 0.061 0.604 0.163c0.389 0.098 0.959 0.178 1.632 0.304 1.369 0.165 3.243 0.298 5.101-0.084 1.873-0.27 3.641-1.063 4.905-1.727 0.644-0.315 1.103-0.717 1.46-0.93 0.343-0.238 0.541-0.372 0.541-0.372l-0.967-1.406s-0.178 0.119-0.489 0.332c-0.319 0.192-0.733 0.56-1.306 0.837-1.13 0.587-2.694 1.296-4.357 1.532-1.648 0.347-3.336 0.222-4.573 0.078-0.616-0.118-1.134-0.19-1.489-0.277-0.354-0.096-0.554-0.152-0.554-0.152l-0.508 1.702z" fill="#fff"/>		<path d="m51.963 66.312l0.886-1.549s0.145 0.084 0.362 0.204c0.224 0.112 0.522 0.263 0.821 0.412 0.612 0.267 1.23 0.526 1.23 0.526l-0.674 1.646s-0.67-0.279-1.335-0.573c-0.323-0.16-0.65-0.323-0.892-0.446-0.238-0.134-0.398-0.22-0.398-0.22z" fill="#fff"/>		<path d="m72.67 64.103l-1.127-1.274s0.129-0.116 0.322-0.292c0.195-0.175 0.463-0.398 0.678-0.682 0.455-0.539 0.91-1.077 0.91-1.077l1.291 1.101s-0.492 0.579-0.984 1.158c-0.232 0.303-0.523 0.551-0.738 0.742-0.211 0.195-0.352 0.324-0.352 0.324z" fill="#fff"/>			<path d="m75.958 56.919s-1.557 0.781-3.895 1.952c-2.356 1.167-5.51 2.705-8.656 4.175-3.14 1.468-6.294 2.869-8.506 3.736-0.528 0.197-1.013 0.379-1.441 0.539-0.354 0.116-0.663 0.217-0.917 0.3-0.209 0.032-0.209 0.066-0.228 0.07l2.596 15.92s0.201-0.043 0.577-0.121c0.355-0.08 0.969-0.215 1.575-0.387 0.487-0.156 1.079-0.35 1.757-0.568 0.588-0.221 1.251-0.469 1.974-0.738 2.765-1.086 6.12-2.588 9.437-4.135 3.311-1.547 6.561-3.133 8.995-4.338 2.439-1.223 4.066-2.039 4.066-2.039l-7.334-14.366z" fill="none"/>			<path d="m73.395 66.313s-3.439 1.693-6.91 3.313c-3.464 1.639-6.979 3.122-6.979 3.122l0.625 1.488s3.559-1.504 7.036-3.148c3.487-1.627 6.936-3.326 6.936-3.326l-0.708-1.449z" fill="#fff"/>		<polygon points="78.206 63.908 78.932 65.35 76.18 66.724 75.463 65.279" fill="#fff"/>		<path d="m57.399 73.588l0.585 1.504s-0.729 0.273-1.46 0.547c-0.752 0.246-1.503 0.492-1.503 0.492l-0.451-1.549s0.707-0.232 1.413-0.465c0.708-0.263 1.416-0.529 1.416-0.529z" fill="#fff"/><g stroke="#fff" stroke-width="6" stroke-miterlimit="10" fill="#fff">	<path d="m40.578 86.956c-0.467 2.488-1.308 7.492-1.919 12.637 1.383-1.381 3.712-3.316 6.049-3.639 3.673-0.506 4.78 1.68 4.228 5.074-0.463 2.828-2.397 9.473-0.083 8.984 1.324-0.268 3.202-2.992 4.026-5.656 0.213-0.625 2.126 0.301 1.933 0.754-1.335 3.586-3.767 8.172-8.436 9.154-4.216 0.879-5.224-1.492-5.233-4.041 0-2.17 0.785-6.658 0.933-7.443 0.226-1.137 0.028-1.961-1.124-1.674-0.781 0.191-1.936 1.074-2.848 2.176-0.546 4.371-1.031 8.266-1.377 11.629-0.082 0.947-7.227 2.484-6.984 0.535 1.126-9.127 2.966-21.711 4.063-28.58 1.321-1.197 6.677-1.211 6.772 0.096z"/>	<path d="m69.32 100.22c-1.012 3.16-4.65 5.148-9.464 5.088 0.513 2.182 2.355 2.908 5.367 2.535 2.384-0.285 5.96-1.797 7.562-6.227 0.211-0.625 2.125 0.301 1.969 0.707-2.441 6.373-6.16 9.012-11.256 9.67-7.227 0.951-10.412-2.736-10.604-7.217-0.256-5.875 3.879-10.441 9.941-11.189 5.438-0.657 7.785 3.103 6.485 6.639zm-9.623 2.39c2.433-0.25 3.669-2.078 3.861-3.467 0.136-0.867-0.124-1.514-0.761-1.512-1.53-0.002-2.846 2.18-3.1 4.979z"/>	<path d="m88.977 86.717c-0.338 5.574-3.902 10.275-10.016 12.818-0.373 4.09 0.736 6.275 3.586 5.969 1.924-0.223 4.867-1.393 6.592-6.18 0.182-0.535 2.01 0.402 1.891 0.76-1.826 4.973-4.309 9.184-10.607 9.453-6.508 0.301-8.039-5.271-7.473-13.514 0.432-6.141 2.357-12.23 5.977-14.982 4.234-3.211 10.474-1.135 10.05 5.683zm-8.441 2.012c-0.438 2.059-1.061 4.951-1.328 7.029 1.877-1.193 3.4-4.338 4.004-6.76 0.613-2.637 0.563-5.18-0.48-5.035-0.878 0.12-1.61 2.219-2.196 4.766z"/>	<path d="m105.25 84.479c-0.338 5.574-3.902 10.273-10.016 12.816-0.373 4.09 0.736 6.277 3.586 5.971 1.924-0.223 4.867-1.395 6.592-6.18 0.182-0.535 2.01 0.402 1.891 0.76-1.826 4.971-4.309 9.184-10.607 9.453-6.508 0.301-8.039-5.273-7.473-13.516 0.432-6.141 2.357-12.229 5.977-14.98 4.239-3.221 10.483-1.143 10.053 5.675zm-8.439 2.01c-0.438 2.059-1.061 4.953-1.328 7.031 1.877-1.195 3.4-4.338 4.004-6.76 0.613-2.637 0.563-5.182-0.48-5.037-0.878 0.121-1.608 2.221-2.196 4.766z"/>	<path d="m122.52 99.03c1.996-0.021 4.143-1.719 5.184-4.967 0.213-0.625 2.119 0.26 1.934 0.754-2.152 5.994-5.891 6.637-8.9 6.709-1.852 1.998-4.365 3.195-7.162 3.58-4.924 0.678-8.893-1.285-8.209-8.354 0.588-6.246 4.938-9.865 10.078-10.529 7.82-0.994 10.02 6.059 7.08 12.803zm-10.24-3.358c-0.328 2.555-0.691 5.795 1.73 5.461 0.541-0.074 1.049-0.398 1.408-0.875-0.84-1.158-0.162-3.037 1.252-3.273 0.656-3.58 0.471-7.082-1.609-6.754-1.5 0.246-2.39 2.453-2.78 5.439z"/></g><path stroke="#434347" stroke-width="2" stroke-miterlimit="10" d="m127.7 94.063c-1.041 3.248-3.188 4.945-5.184 4.967 2.941-6.744 0.738-13.797-7.076-12.807-5.141 0.664-9.49 4.283-10.078 10.529-0.018 0.186-0.02 0.355-0.031 0.533-1.732 4.613-4.615 5.762-6.512 5.98-2.85 0.307-3.959-1.881-3.586-5.971 6.113-2.543 9.678-7.242 10.016-12.816 0.424-6.818-5.816-8.896-10.051-5.676-3.619 2.752-5.545 8.84-5.977 14.98-0.137 1.99-0.148 3.82 0.002 5.455-0.033 0.025-0.074 0.043-0.088 0.086-1.725 4.787-4.668 5.957-6.592 6.18-2.85 0.307-3.959-1.879-3.586-5.969 6.113-2.543 9.678-7.244 10.016-12.818 0.424-6.818-5.816-8.895-10.051-5.676-3.619 2.752-5.545 8.842-5.977 14.982-0.137 1.979-0.146 3.799 0 5.426-0.076 0.033-0.137 0.086-0.164 0.168-1.602 4.43-5.178 5.941-7.562 6.227-3.012 0.373-4.854-0.354-5.367-2.535 4.813 0.061 8.452-1.928 9.464-5.088 1.299-3.537-1.047-7.297-6.484-6.633-5.908 0.729-9.974 5.088-9.94 10.748-0.003 0.008-0.014 0.01-0.017 0.02-0.824 2.664-2.702 5.389-4.026 5.656-2.314 0.488-0.38-6.156 0.083-8.984 0.553-3.395-0.555-5.58-4.228-5.074-2.337 0.322-4.666 2.258-6.049 3.639 0.611-5.145 1.452-10.148 1.919-12.637-0.095-1.307-5.451-1.293-6.773-0.09-1.097 6.869-2.937 19.453-4.063 28.58-0.242 1.949 6.902 0.412 6.984-0.535 0.346-3.363 0.831-7.258 1.377-11.629 0.912-1.102 2.066-1.984 2.848-2.176 1.152-0.287 1.35 0.537 1.124 1.674-0.147 0.785-0.933 5.273-0.933 7.443 0.01 2.549 1.018 4.92 5.233 4.041 3.513-0.738 5.759-3.518 7.224-6.375 1.305 2.904 4.453 4.822 9.898 4.105 4.354-0.563 7.7-2.58 10.104-7.125 1.004 3.078 3.094 4.84 6.82 4.668 5.125-0.221 7.721-3.047 9.496-6.771 1.02 3 3.105 4.703 6.779 4.533 4.723-0.201 7.301-2.621 9.064-5.914 1.133 3.289 4.213 4.215 7.813 3.721 2.797-0.385 5.311-1.582 7.162-3.58 3.01-0.072 6.748-0.715 8.9-6.709 0.19-0.468-1.71-1.353-1.93-0.728zm-30.889-7.574c0.588-2.545 1.318-4.645 2.195-4.766 1.043-0.145 1.094 2.4 0.48 5.037-0.604 2.422-2.127 5.564-4.004 6.76 0.268-2.078 0.892-4.973 1.329-7.031zm-16.275 2.24c0.586-2.547 1.318-4.646 2.195-4.766 1.043-0.145 1.094 2.398 0.48 5.035-0.604 2.422-2.127 5.566-4.004 6.76 0.268-2.078 0.891-4.97 1.329-7.029zm-17.738 8.902c0.637-0.002 0.896 0.645 0.761 1.512-0.192 1.389-1.429 3.217-3.861 3.467 0.253-2.799 1.569-4.981 3.1-4.979zm53.872-0.646c-1.414 0.236-2.092 2.115-1.252 3.273-0.359 0.477-0.867 0.801-1.408 0.875-2.422 0.334-2.059-2.906-1.73-5.461 0.396-2.986 1.283-5.193 2.781-5.441 2.08-0.335 2.26 3.167 1.61 6.747z" fill="none"/><linearGradient id="hello-SVGID_6_" y2="31.413" gradientUnits="userSpaceOnUse" x2="107.52" y1="31.413" x1="94.711">	<stop stop-color="#F79D2A" offset="0"/>	<stop stop-color="#FFCD2E" offset="1"/></linearGradient><path opacity=".5" d="m96.711 19.586s12.188 5.536 7.887 23.653" stroke="url(#hello-SVGID_6_)" stroke-linecap="round" stroke-miterlimit="10" stroke-width="4" fill="none"/><linearGradient id="hello-SVGID_7_" y2="25.758" gradientUnits="userSpaceOnUse" x2="116.66" y1="25.758" x1="106.34">	<stop stop-color="#F79D2A" offset="0"/>	<stop stop-color="#FFCD2E" offset="1"/></linearGradient><path opacity=".5" d="m108.34 17.271s8.746 3.974 5.66 16.975" stroke="url(#hello-SVGID_7_)" stroke-linecap="round" stroke-miterlimit="10" stroke-width="4" fill="none"/><linearGradient id="hello-SVGID_8_" y2="313.56" gradientUnits="userSpaceOnUse" x2="676.78" gradientTransform="matrix(-.999 -.044 .044 -.999 681.65 406.59)" y1="313.56" x1="663.97">	<stop stop-color="#F79D2A" offset="0"/>	<stop stop-color="#FFCD2E" offset="1"/></linearGradient><path opacity=".5" d="m29.621 75.852s-11.934-6.068-6.838-23.979" stroke="url(#hello-SVGID_8_)" stroke-linecap="round" stroke-miterlimit="10" stroke-width="4" fill="none"/><linearGradient id="hello-SVGID_9_" y2="307.91" gradientUnits="userSpaceOnUse" x2="685.92" gradientTransform="matrix(-.999 -.044 .044 -.999 681.65 406.59)" y1="307.91" x1="675.6">	<stop stop-color="#F79D2A" offset="0"/>	<stop stop-color="#FFCD2E" offset="1"/></linearGradient><path opacity=".5" d="m17.903 77.653s-8.562-4.354-4.907-17.207" stroke="url(#hello-SVGID_9_)" stroke-linecap="round" stroke-miterlimit="10" stroke-width="4" fill="none"/></svg><svg xmlns:xlink="http://www.w3.org/1999/xlink" id="sk" xml:space="preserve" height="30" viewBox="0 0 30 30" width="30" version="1.1" y="298" x="0px" enable-background="new 0 0 30 30">	<style type="text/css">		#sk-sk .sk-icon {			fill: #fff;		}		#sk:hover .sk-icon {			opacity: 0.7;		}	</style>	<path d="m22.5 30c-1.719 0-3.301-0.586-4.57-1.563-0.938 0.195-1.934 0.313-2.93 0.313-7.598 0-13.75-6.152-13.75-13.75 0-0.996 0.117-1.992 0.313-2.93-0.977-1.269-1.563-2.851-1.563-4.57 0-4.141 3.359-7.5 7.5-7.5 1.719 0 3.301 0.586 4.57 1.563 0.938-0.196 1.934-0.313 2.93-0.313 7.598 0 13.75 6.152 13.75 13.75 0 0.996-0.117 1.993-0.313 2.93 0.977 1.27 1.563 2.852 1.563 4.57 0 4.141-3.359 7.5-7.5 7.5zm-5.664-16.934l-2.031-0.469c-1.484-0.352-2.598-0.605-2.598-1.738 0-1.035 1.094-1.504 2.813-1.504 3.066 0 3.125 2.246 5.02 2.246 1.27 0 2.031-0.996 2.031-2.129 0-2.246-3.73-3.711-7.422-3.711-3.379 0-7.305 1.465-7.305 5.43 0 3.281 2.188 4.453 5.039 5.137l2.852 0.703c1.738 0.43 2.813 0.625 2.813 1.875 0 0.996-1.113 1.758-2.832 1.758-3.613 0-3.809-3.008-5.898-3.008-1.367 0-1.973 0.977-1.973 2.051 0 2.402 3.672 4.355 8.066 4.355 3.672 0 7.5-1.836 7.5-5.801-0.001-3.398-3.302-4.57-6.075-5.195z" class="sk-icon" fill="#fff"/></svg><svg xmlns:xlink="http://www.w3.org/1999/xlink" id="vk" xml:space="preserve" height="21" viewBox="0 0 37.513 21.403" width="38" version="1.1" y="328" x="0px" enable-background="new 0 0 37.513 21.403">	<style type="text/css">		#vk-vk .vk-icon {			fill: #fff;		}		#vk:hover .vk-icon {			opacity: 0.7;		}	</style>	<path d="m34.53 7.29c-3.789 5.039-4.199 4.57-1.074 7.48 3.008 2.793 3.633 4.141 3.73 4.316 0 0 1.25 2.188-1.387 2.207l-5 0.078c-1.074 0.215-2.5-0.762-2.5-0.762-1.875-1.289-3.633-4.629-5-4.199 0 0-1.406 0.449-1.367 3.457 0.02 0.645-0.293 0.996-0.293 0.996s-0.352 0.371-1.035 0.43h-2.246c-4.941 0.313-9.297-4.238-9.297-4.238s-4.765-4.921-8.945-14.745c-0.273-0.645 0.02-0.957 0.02-0.957s0.293-0.371 1.113-0.371l5.352-0.039c0.507 0.078 0.859 0.351 0.859 0.351s0.313 0.215 0.469 0.625c0.879 2.188 2.012 4.18 2.012 4.18 1.953 4.023 3.281 4.707 4.043 4.297 0 0 0.996-0.605 0.781-5.469-0.078-1.758-0.566-2.559-0.566-2.559-0.449-0.605-1.289-0.781-1.66-0.84-0.293-0.039 0.195-0.742 0.84-1.055 0.957-0.469 2.656-0.488 4.668-0.469 1.582 0.02 2.031 0.117 2.637 0.254 1.855 0.449 1.23 2.168 1.23 6.309 0 1.328-0.254 3.184 0.703 3.789 0.41 0.273 1.426 0.039 3.926-4.219 0 0 1.172-2.031 2.09-4.395 0.156-0.43 0.488-0.605 0.488-0.605s0.313-0.176 0.742-0.117l5.625-0.039c1.699-0.215 1.973 0.566 1.973 0.566 0.292 0.802-0.626 2.677-2.931 5.743z" class="vk-icon" fill="#fff"/></svg></svg>
